<svg width="108" height="86" viewBox="0 0 108 86" fill="none" xmlns="http://www.w3.org/2000/svg">
<path d="M107.96 77.14C107.96 79.2458 107.123 81.2654 105.634 82.7544C104.145 84.2435 102.126 85.08 100.02 85.08H7.94C5.83418 85.08 3.81461 84.2435 2.32557 82.7544C0.836534 81.2654 0 79.2458 0 77.14V7.94C0 5.83418 0.836534 3.81461 2.32557 2.32557C3.81461 0.83653 5.83418 0 7.94 0H100.02C102.126 0 104.145 0.83653 105.634 2.32557C107.123 3.81461 107.96 5.83418 107.96 7.94V77.14ZM79.26 29.12C79.9933 28.8467 80.62 29.0033 81.14 29.59L103.36 54.66C103.667 55.0067 103.82 54.95 103.82 54.49L103.73 4.75C103.73 4.55109 103.651 4.36032 103.51 4.21967C103.37 4.07902 103.179 4 102.98 4H4.76C4.56374 4 4.37552 4.07796 4.23674 4.21674C4.09797 4.35552 4.02 4.54374 4.02 4.74L4.05 58.05C4.04953 58.128 4.0708 58.2046 4.11141 58.2712C4.15202 58.3378 4.21038 58.3918 4.27993 58.4271C4.34949 58.4623 4.4275 58.4776 4.50523 58.471C4.58296 58.4645 4.65733 58.4364 4.72001 58.39L20.35 47.27C20.8151 46.9408 21.3613 46.7446 21.9303 46.7023C22.4993 46.6601 23.0695 46.7733 23.58 47.03L44.31 57.45C44.6367 57.6167 44.9367 57.5833 45.21 57.35C55.8367 48.39 66.44 39.4567 77.02 30.55C77.8733 29.8367 78.62 29.36 79.26 29.12ZM46.01 61.96C45.8736 62.0762 45.706 62.1496 45.5281 62.171C45.3502 62.1923 45.17 62.1607 45.01 62.08L22.86 50.95C22.7119 50.8747 22.5459 50.8415 22.3802 50.8538C22.2145 50.8661 22.0554 50.9236 21.92 51.02L4.42 63.52C4.3024 63.6043 4.20659 63.7153 4.1405 63.844C4.07441 63.9727 4.03996 64.1153 4.04 64.26L4.03 80.1C4.03 80.3413 4.12588 80.5728 4.29654 80.7435C4.46719 80.9141 4.69865 81.01 4.94 81.01H102.9C103.141 81.01 103.373 80.9141 103.543 80.7435C103.714 80.5728 103.81 80.3413 103.81 80.1L103.77 61.22C103.771 60.9952 103.689 60.7779 103.54 60.61L80.01 34.54C79.8511 34.3663 79.6311 34.2609 79.3961 34.2459C79.1612 34.231 78.9296 34.3078 78.75 34.46L46.01 61.96Z" fill="black"/>
<path d="M42.31 32.86C44.9057 32.86 47.01 30.7557 47.01 28.16C47.01 25.5642 44.9057 23.46 42.31 23.46C39.7142 23.46 37.61 25.5642 37.61 28.16C37.61 30.7557 39.7142 32.86 42.31 32.86Z" fill="black"/>
</svg>
