<svg width="108" height="86" viewBox="0 0 108 86" fill="none" xmlns="http://www.w3.org/2000/svg">
<path d="M107.88 77.3444C107.878 78.3805 107.672 79.4062 107.274 80.3627C106.876 81.3193 106.293 82.1881 105.559 82.9194C104.825 83.6508 103.954 84.2305 102.997 84.6253C102.039 85.0201 101.012 85.2224 99.9761 85.2206L7.87621 85.0599C6.84008 85.0581 5.81445 84.8522 4.85789 84.454C3.90132 84.0559 3.03255 83.4732 2.30118 82.7392C1.56981 82.0053 0.990153 81.1345 0.595318 80.1765C0.200484 79.2186 -0.00180174 78.1922 1.20906e-05 77.1561L0.120911 7.87621C0.122722 6.84008 0.328597 5.81445 0.726781 4.85789C1.12496 3.90132 1.70765 3.03255 2.44159 2.30118C3.17553 1.56981 4.04634 0.990153 5.00429 0.595318C5.96224 0.200484 6.98858 -0.00180174 8.02471 1.20906e-05L100.125 0.160714C101.161 0.162524 102.186 0.3684 103.143 0.766583C104.099 1.16477 104.968 1.74746 105.7 2.4814C106.431 3.21533 107.011 4.08613 107.406 5.04409C107.8 6.00204 108.003 7.02839 108.001 8.06452L107.88 77.3444ZM103.73 4.93031C103.73 4.70223 103.64 4.48348 103.479 4.3222C103.317 4.16092 103.098 4.07031 102.87 4.07031H4.79041C4.56233 4.07031 4.34358 4.16092 4.1823 4.3222C4.02102 4.48348 3.93041 4.70223 3.93041 4.93031V80.2103C3.93041 80.4384 4.02102 80.6571 4.1823 80.8184C4.34358 80.9797 4.56233 81.0703 4.79041 81.0703H102.87C103.098 81.0703 103.317 80.9797 103.479 80.8184C103.64 80.6571 103.73 80.4384 103.73 80.2103V4.93031Z" fill="black"/>
<path d="M48.8504 29.5504L66.3704 41.1804C66.6303 41.354 66.8433 41.589 66.9907 41.8646C67.138 42.1402 67.2151 42.4479 67.2151 42.7604C67.2151 43.0729 67.138 43.3806 66.9907 43.6562C66.8433 43.9318 66.6303 44.1668 66.3704 44.3404L48.8504 55.9704C48.5637 56.1605 48.2307 56.2692 47.887 56.2849C47.5433 56.3006 47.2018 56.2227 46.8989 56.0594C46.5961 55.8962 46.3432 55.6538 46.1673 55.3581C45.9915 55.0624 45.8992 54.7244 45.9004 54.3804V31.1404C45.8992 30.7963 45.9915 30.4584 46.1673 30.1627C46.3432 29.867 46.5961 29.6246 46.8989 29.4614C47.2018 29.2981 47.5433 29.2202 47.887 29.2359C48.2307 29.2515 48.5637 29.3603 48.8504 29.5504Z" fill="black"/>
</svg>
