<svg width="112" height="34" viewBox="0 0 112 34" fill="none" xmlns="http://www.w3.org/2000/svg">
<path d="M38.0618 16.768V18.96H33.4858V21.328H36.9098V23.456H33.4858V28H30.7498V16.768H38.0618ZM44.8118 28.112C43.7558 28.112 42.7851 27.8667 41.8998 27.376C41.0251 26.8853 40.3265 26.2027 39.8038 25.328C39.2918 24.4427 39.0358 23.4507 39.0358 22.352C39.0358 21.2533 39.2918 20.2667 39.8038 19.392C40.3265 18.5173 41.0251 17.8347 41.8998 17.344C42.7851 16.8533 43.7558 16.608 44.8118 16.608C45.8678 16.608 46.8331 16.8533 47.7078 17.344C48.5931 17.8347 49.2865 18.5173 49.7878 19.392C50.2998 20.2667 50.5558 21.2533 50.5558 22.352C50.5558 23.4507 50.2998 24.4427 49.7878 25.328C49.2758 26.2027 48.5825 26.8853 47.7078 27.376C46.8331 27.8667 45.8678 28.112 44.8118 28.112ZM44.8118 25.616C45.7078 25.616 46.4225 25.3173 46.9558 24.72C47.4998 24.1227 47.7718 23.3333 47.7718 22.352C47.7718 21.36 47.4998 20.5707 46.9558 19.984C46.4225 19.3867 45.7078 19.088 44.8118 19.088C43.9051 19.088 43.1798 19.3813 42.6358 19.968C42.1025 20.5547 41.8358 21.3493 41.8358 22.352C41.8358 23.344 42.1025 24.1387 42.6358 24.736C43.1798 25.3227 43.9051 25.616 44.8118 25.616ZM51.6139 22.368C51.6139 21.2587 51.8539 20.272 52.3339 19.408C52.8139 18.5333 53.4806 17.856 54.3339 17.376C55.1979 16.8853 56.1739 16.64 57.2619 16.64C58.5953 16.64 59.7366 16.992 60.6859 17.696C61.6353 18.4 62.2699 19.36 62.5899 20.576H59.5819C59.3579 20.1067 59.0379 19.7493 58.6219 19.504C58.2166 19.2587 57.7526 19.136 57.2299 19.136C56.3873 19.136 55.7046 19.4293 55.1819 20.016C54.6593 20.6027 54.3979 21.3867 54.3979 22.368C54.3979 23.3493 54.6593 24.1333 55.1819 24.72C55.7046 25.3067 56.3873 25.6 57.2299 25.6C57.7526 25.6 58.2166 25.4773 58.6219 25.232C59.0379 24.9867 59.3579 24.6293 59.5819 24.16H62.5899C62.2699 25.376 61.6353 26.336 60.6859 27.04C59.7366 27.7333 58.5953 28.08 57.2619 28.08C56.1739 28.08 55.1979 27.84 54.3339 27.36C53.4806 26.8693 52.8139 26.192 52.3339 25.328C51.8539 24.464 51.6139 23.4773 51.6139 22.368ZM66.9534 16.768V23.488C66.9534 24.16 67.1188 24.6773 67.4494 25.04C67.7801 25.4027 68.2654 25.584 68.9054 25.584C69.5454 25.584 70.0361 25.4027 70.3774 25.04C70.7188 24.6773 70.8894 24.16 70.8894 23.488V16.768H73.6254V23.472C73.6254 24.4747 73.4121 25.3227 72.9854 26.016C72.5588 26.7093 71.9828 27.232 71.2574 27.584C70.5428 27.936 69.7428 28.112 68.8574 28.112C67.9721 28.112 67.1774 27.9413 66.4734 27.6C65.7801 27.248 65.2308 26.7253 64.8254 26.032C64.4201 25.328 64.2174 24.4747 64.2174 23.472V16.768H66.9534ZM79.6107 28.112C78.7894 28.112 78.0534 27.9787 77.4027 27.712C76.752 27.4453 76.2294 27.0507 75.8347 26.528C75.4507 26.0053 75.248 25.376 75.2267 24.64H78.1387C78.1814 25.056 78.3254 25.376 78.5707 25.6C78.816 25.8133 79.136 25.92 79.5307 25.92C79.936 25.92 80.256 25.8293 80.4907 25.648C80.7254 25.456 80.8427 25.1947 80.8427 24.864C80.8427 24.5867 80.7467 24.3573 80.5547 24.176C80.3734 23.9947 80.144 23.8453 79.8667 23.728C79.6 23.6107 79.216 23.4773 78.7147 23.328C77.9894 23.104 77.3974 22.88 76.9387 22.656C76.48 22.432 76.0854 22.1013 75.7547 21.664C75.424 21.2267 75.2587 20.656 75.2587 19.952C75.2587 18.9067 75.6374 18.0907 76.3947 17.504C77.152 16.9067 78.1387 16.608 79.3547 16.608C80.592 16.608 81.5894 16.9067 82.3467 17.504C83.104 18.0907 83.5094 18.912 83.5627 19.968H80.6027C80.5814 19.6053 80.448 19.3227 80.2027 19.12C79.9574 18.9067 79.6427 18.8 79.2587 18.8C78.928 18.8 78.6614 18.8907 78.4587 19.072C78.256 19.2427 78.1547 19.4933 78.1547 19.824C78.1547 20.1867 78.3254 20.4693 78.6667 20.672C79.008 20.8747 79.5414 21.0933 80.2667 21.328C80.992 21.5733 81.5787 21.808 82.0267 22.032C82.4854 22.256 82.88 22.5813 83.2107 23.008C83.5414 23.4347 83.7067 23.984 83.7067 24.656C83.7067 25.296 83.5414 25.8773 83.2107 26.4C82.8907 26.9227 82.4214 27.3387 81.8027 27.648C81.184 27.9573 80.4534 28.112 79.6107 28.112ZM89.4544 28.112C88.6331 28.112 87.8971 27.9787 87.2464 27.712C86.5958 27.4453 86.0731 27.0507 85.6784 26.528C85.2944 26.0053 85.0918 25.376 85.0704 24.64H87.9824C88.0251 25.056 88.1691 25.376 88.4144 25.6C88.6598 25.8133 88.9798 25.92 89.3744 25.92C89.7798 25.92 90.0998 25.8293 90.3344 25.648C90.5691 25.456 90.6864 25.1947 90.6864 24.864C90.6864 24.5867 90.5904 24.3573 90.3984 24.176C90.2171 23.9947 89.9878 23.8453 89.7104 23.728C89.4438 23.6107 89.0598 23.4773 88.5584 23.328C87.8331 23.104 87.2411 22.88 86.7824 22.656C86.3238 22.432 85.9291 22.1013 85.5984 21.664C85.2678 21.2267 85.1024 20.656 85.1024 19.952C85.1024 18.9067 85.4811 18.0907 86.2384 17.504C86.9958 16.9067 87.9824 16.608 89.1984 16.608C90.4358 16.608 91.4331 16.9067 92.1904 17.504C92.9478 18.0907 93.3531 18.912 93.4064 19.968H90.4464C90.4251 19.6053 90.2918 19.3227 90.0464 19.12C89.8011 18.9067 89.4864 18.8 89.1024 18.8C88.7718 18.8 88.5051 18.8907 88.3024 19.072C88.0998 19.2427 87.9984 19.4933 87.9984 19.824C87.9984 20.1867 88.1691 20.4693 88.5104 20.672C88.8518 20.8747 89.3851 21.0933 90.1104 21.328C90.8358 21.5733 91.4224 21.808 91.8704 22.032C92.3291 22.256 92.7238 22.5813 93.0544 23.008C93.3851 23.4347 93.5504 23.984 93.5504 24.656C93.5504 25.296 93.3851 25.8773 93.0544 26.4C92.7344 26.9227 92.2651 27.3387 91.6464 27.648C91.0278 27.9573 90.2971 28.112 89.4544 28.112Z" fill="black"/>
<path d="M34.8436 3.54313C35.1561 2.19519 34.8436 0 34.8436 0C34.8436 0 23.9192 0.210859 15.272 0.0843602C6.62481 -0.0421389 2.57578 5.31474 2.70234 9.70143C2.82889 14.0881 3.4194 14.9318 3.4194 14.9318C4.25777 11.5625 5.61277 9.78583 7.67959 9.70143C9.74642 9.61702 24.7204 9.82801 28.0104 9.57489C31.3005 9.32176 34.0398 7.01063 34.8436 3.54313Z" fill="url(#paint0_linear_41_62)"/>
<path d="M20.6547 12.2042C14.7495 12.2042 14.6651 12.0776 10.0253 12.2042C5.38548 12.3308 0.197317 17.3081 0.0286044 21.6947C-0.140108 26.0814 0.492586 26.8407 0.492586 26.8407C1.44226 23.6018 2.68593 21.9057 5.17458 21.6947C7.66322 21.4838 15.5509 21.5681 20.6547 21.6947C25.7585 21.8214 26.5599 12.2042 20.6547 12.2042Z" fill="url(#paint1_linear_41_62)"/>
<path d="M11.8684 24.0004C5.37271 23.6208 3.53658 23.9539 2.48876 22.7772C0.496733 23.8371 -0.0261899 25.7298 0.522133 26.9531C3.05295 31.4663 6.89119 34.4189 11.8684 33.8706C16.8457 33.3223 18.3642 24.3801 11.8684 24.0004Z" fill="url(#paint2_linear_41_62)"/>
<defs>
<linearGradient id="paint0_linear_41_62" x1="-5.82092" y1="10.8403" x2="45.0483" y2="7.50806" gradientUnits="userSpaceOnUse">
<stop stop-color="#012481"/>
<stop offset="0.53125" stop-color="#00C0EA"/>
<stop offset="1" stop-color="#21C864"/>
</linearGradient>
<linearGradient id="paint1_linear_41_62" x1="27.7545" y1="19.4873" x2="-4.89289" y2="21.0058" gradientUnits="userSpaceOnUse">
<stop stop-color="#21C864"/>
<stop offset="0.473958" stop-color="#00C0EA"/>
<stop offset="1" stop-color="#012481"/>
</linearGradient>
<linearGradient id="paint2_linear_41_62" x1="19.1499" y1="28.345" x2="0.337603" y2="22.7772" gradientUnits="userSpaceOnUse">
<stop stop-color="#21C864"/>
<stop offset="0.552083" stop-color="#00C0EA"/>
<stop offset="1" stop-color="#012481"/>
</linearGradient>
</defs>
</svg>
